<svg width="1000" height="1000" viewBox="0 0 1000 1000" fill="none" xmlns="http://www.w3.org/2000/svg">
<path d="M713.717 236V764H596.154L408.467 439.156H404.342V764H284.717V236H403.311L589.967 560.844H594.092V236H713.717ZM770.334 764.636C765.016 764.636 760.819 763.091 757.743 760C754.683 756.894 753.153 752.591 753.153 747.091C753.153 743.545 753.804 740.386 755.107 737.614C756.41 734.826 758.319 732.636 760.834 731.045C763.349 729.439 766.425 728.636 770.062 728.636C774.88 728.636 778.736 730.083 781.63 732.977C784.524 735.871 785.971 739.909 785.971 745.091V749.455H763.13C763.403 751.53 764.107 753.189 765.243 754.432C766.38 755.659 768.046 756.273 770.243 756.273C771.637 756.273 772.743 756.038 773.562 755.568C774.395 755.098 775.031 754.515 775.471 753.818C775.925 753.121 776.274 752.424 776.516 751.727L785.698 754.182C785.334 755.697 784.577 757.265 783.425 758.886C782.289 760.492 780.653 761.856 778.516 762.977C776.395 764.083 773.668 764.636 770.334 764.636ZM769.971 736.909C768.259 736.909 766.857 737.424 765.766 738.455C764.675 739.47 763.903 740.894 763.448 742.727H776.243C776.243 741.091 775.706 739.712 774.63 738.591C773.569 737.47 772.016 736.909 769.971 736.909ZM812.067 747.636V729.091H822.522V764H812.885V760.273H812.522C811.522 761.545 810.211 762.561 808.59 763.318C806.969 764.076 805.158 764.455 803.158 764.455C801.189 764.455 799.31 764.03 797.522 763.182C795.734 762.318 794.272 760.902 793.135 758.932C791.999 756.947 791.431 754.273 791.431 750.909V729.091H801.885V750.545C801.885 752.409 802.363 753.818 803.317 754.773C804.287 755.712 805.476 756.182 806.885 756.182C808.84 756.182 810.189 755.371 810.931 753.75C811.689 752.129 812.067 750.091 812.067 747.636ZM852.238 729.727L849.056 738.636C848.829 738.5 848.382 738.348 847.715 738.182C847.048 738 846.374 737.909 845.692 737.909C843.965 737.909 842.503 738.523 841.306 739.75C840.109 740.977 839.51 742.455 839.51 744.182V764H829.056V729.091H839.238V733.545H839.783C840.283 731.727 841.276 730.455 842.76 729.727C844.26 729 845.783 728.636 847.329 728.636C848.238 728.636 849.147 728.742 850.056 728.955C850.965 729.152 851.692 729.409 852.238 729.727ZM870.17 764.636C866.745 764.636 863.806 763.864 861.351 762.318C858.897 760.758 857.01 758.621 855.692 755.909C854.374 753.182 853.715 750.061 853.715 746.545C853.715 743.03 854.374 739.932 855.692 737.25C857.01 734.553 858.897 732.447 861.351 730.932C863.806 729.402 866.745 728.636 870.17 728.636C873.594 728.636 876.533 729.402 878.988 730.932C881.442 732.447 883.329 734.553 884.647 737.25C885.965 739.932 886.624 743.03 886.624 746.545C886.624 750.061 885.965 753.182 884.647 755.909C883.329 758.621 881.442 760.758 878.988 762.318C876.533 763.864 873.594 764.636 870.17 764.636ZM870.17 756.273C872.533 756.273 874.215 755.379 875.215 753.591C876.215 751.803 876.715 749.455 876.715 746.545C876.715 743.636 876.215 741.303 875.215 739.545C874.215 737.788 872.533 736.909 870.17 736.909C867.806 736.909 866.124 737.788 865.124 739.545C864.124 741.303 863.624 743.636 863.624 746.545C863.624 749.455 864.124 751.803 865.124 753.591C866.124 755.379 867.806 756.273 870.17 756.273ZM902.51 745.455V764H892.056V729.091H901.692V732.818H902.056C903.056 731.545 904.367 730.53 905.988 729.773C907.609 729.015 909.42 728.636 911.42 728.636C913.389 728.636 915.268 729.068 917.056 729.932C918.844 730.78 920.306 732.197 921.442 734.182C922.579 736.152 923.147 738.818 923.147 742.182V764H912.692V742.545C912.692 740.682 912.207 739.28 911.238 738.341C910.283 737.386 909.101 736.909 907.692 736.909C905.738 736.909 904.382 737.72 903.624 739.341C902.882 740.962 902.51 743 902.51 745.455Z" fill="white"/>
<path d="M713.717 236H723.717V226H713.717V236ZM713.717 764V774H723.717V764H713.717ZM596.154 764L587.496 769.003L590.383 774H596.154V764ZM408.467 439.156L417.125 434.153L414.238 429.156H408.467V439.156ZM404.342 439.156V429.156H394.342V439.156H404.342ZM404.342 764V774H414.342V764H404.342ZM284.717 764H274.717V774H284.717V764ZM284.717 236V226H274.717V236H284.717ZM403.311 236L411.981 231.018L409.098 226H403.311V236ZM589.967 560.844L581.296 565.826L584.18 570.844H589.967V560.844ZM594.092 560.844V570.844H604.092V560.844H594.092ZM594.092 236V226H584.092V236H594.092ZM703.717 236V764H723.717V236H703.717ZM713.717 754H596.154V774H713.717V754ZM604.813 758.997L417.125 434.153L399.808 444.159L587.496 769.003L604.813 758.997ZM408.467 429.156H404.342V449.156H408.467V429.156ZM394.342 439.156V764H414.342V439.156H394.342ZM404.342 754H284.717V774H404.342V754ZM294.717 764V236H274.717V764H294.717ZM284.717 246H403.311V226H284.717V246ZM394.64 240.982L581.296 565.826L598.637 555.862L411.981 231.018L394.64 240.982ZM589.967 570.844H594.092V550.844H589.967V570.844ZM604.092 560.844V236H584.092V560.844H604.092ZM594.092 246H713.717V226H594.092V246ZM757.743 760L750.62 767.019L750.638 767.036L750.655 767.054L757.743 760ZM755.107 737.614L764.157 741.867L764.162 741.857L764.166 741.848L755.107 737.614ZM760.834 731.045L766.18 739.497L766.198 739.485L766.216 739.474L760.834 731.045ZM781.63 732.977L788.701 725.906L788.701 725.906L781.63 732.977ZM785.971 749.455V759.455H795.971V749.455H785.971ZM763.13 749.455V739.455H751.73L753.215 750.757L763.13 749.455ZM765.243 754.432L757.864 761.181L757.885 761.203L757.906 761.226L765.243 754.432ZM773.562 755.568L768.651 746.857L768.617 746.876L768.583 746.896L773.562 755.568ZM775.471 753.818L767.095 748.356L767.053 748.42L767.011 748.485L775.471 753.818ZM776.516 751.727L779.099 742.067L770.123 739.667L767.071 748.442L776.516 751.727ZM785.698 754.182L795.422 756.516L797.696 747.038L788.281 744.521L785.698 754.182ZM783.425 758.886L775.272 753.096L775.267 753.103L775.262 753.11L783.425 758.886ZM778.516 762.977L783.14 771.844L783.151 771.838L783.163 771.832L778.516 762.977ZM765.766 738.455L772.578 745.775L772.606 745.75L772.632 745.725L765.766 738.455ZM763.448 742.727L753.742 740.321L750.666 752.727H763.448V742.727ZM776.243 742.727V752.727H786.243V742.727H776.243ZM774.63 738.591L767.365 745.463L767.389 745.489L767.414 745.514L774.63 738.591ZM770.334 754.636C767.054 754.636 765.633 753.751 764.832 752.946L750.655 767.054C756.005 772.43 762.978 774.636 770.334 774.636V754.636ZM764.866 752.981C764.1 752.204 763.153 750.685 763.153 747.091H743.153C743.153 754.496 745.265 761.584 750.62 767.019L764.866 752.981ZM763.153 747.091C763.153 744.785 763.571 743.115 764.157 741.867L746.057 733.36C744.037 737.658 743.153 742.306 743.153 747.091H763.153ZM764.166 741.848C764.689 740.73 765.337 740.03 766.18 739.497L755.489 722.594C751.301 725.243 748.131 728.922 746.048 733.379L764.166 741.848ZM766.216 739.474C766.804 739.098 767.913 738.636 770.062 738.636V718.636C764.937 718.636 759.895 719.78 755.452 722.617L766.216 739.474ZM770.062 738.636C772.734 738.636 773.87 739.36 774.559 740.048L788.701 725.906C783.602 720.807 777.026 718.636 770.062 718.636V738.636ZM774.559 740.048C775.111 740.6 775.971 741.819 775.971 745.091H795.971C795.971 737.999 793.937 731.142 788.701 725.906L774.559 740.048ZM775.971 745.091V749.455H795.971V745.091H775.971ZM785.971 739.455H763.13V759.455H785.971V739.455ZM753.215 750.757C753.689 754.366 755.04 758.093 757.864 761.181L772.622 747.683C772.872 747.955 773.008 748.207 773.067 748.347C773.12 748.471 773.082 748.434 773.045 748.152L753.215 750.757ZM757.906 761.226C761.48 765.085 766.179 766.273 770.243 766.273V746.273C770.055 746.273 770.3 746.244 770.801 746.428C771.354 746.632 772.011 747.023 772.581 747.638L757.906 761.226ZM770.243 766.273C772.608 766.273 775.652 765.899 778.54 764.241L768.583 746.896C769.236 746.521 769.771 746.372 770.041 746.315C770.307 746.258 770.397 746.273 770.243 746.273V766.273ZM778.472 764.28C780.516 763.127 782.473 761.462 783.93 759.151L767.011 748.485C767.59 747.568 768.274 747.07 768.651 746.857L778.472 764.28ZM783.847 759.281C784.689 757.989 785.421 756.566 785.961 755.012L767.071 748.442C767.127 748.282 767.161 748.253 767.095 748.356L783.847 759.281ZM773.934 761.388L783.115 763.843L788.281 744.521L779.099 742.067L773.934 761.388ZM775.974 751.848C775.978 751.83 775.88 752.24 775.272 753.096L791.578 764.677C793.274 762.29 794.69 759.564 795.422 756.516L775.974 751.848ZM775.262 753.11C775.222 753.167 774.918 753.572 773.869 754.123L783.163 771.832C786.387 770.14 789.356 767.817 791.589 764.662L775.262 753.11ZM773.893 754.11C773.649 754.238 772.656 754.636 770.334 754.636V774.636C774.68 774.636 779.141 773.929 783.14 771.844L773.893 754.11ZM769.971 726.909C766.093 726.909 762.111 728.152 758.9 731.184L772.632 745.725C772.199 746.134 771.661 746.47 771.085 746.681C770.532 746.885 770.122 746.909 769.971 746.909V726.909ZM758.954 731.134C756.106 733.784 754.539 737.105 753.742 740.321L773.154 745.134C773.21 744.908 773.236 744.909 773.158 745.053C773.073 745.21 772.892 745.483 772.578 745.775L758.954 731.134ZM763.448 752.727H776.243V732.727H763.448V752.727ZM786.243 742.727C786.243 738.662 784.81 734.757 781.846 731.668L767.414 745.514C767.089 745.175 766.756 744.695 766.524 744.1C766.295 743.515 766.243 743.021 766.243 742.727H786.243ZM781.894 731.719C778.387 728.011 773.831 726.909 769.971 726.909V746.909C770.102 746.909 769.812 746.929 769.274 746.735C768.686 746.523 767.983 746.116 767.365 745.463L781.894 731.719ZM812.067 729.091V719.091H802.067V729.091H812.067ZM822.522 729.091H832.522V719.091H822.522V729.091ZM822.522 764V774H832.522V764H822.522ZM812.885 764H802.885V774H812.885V764ZM812.885 760.273H822.885V750.273H812.885V760.273ZM812.522 760.273V750.273H807.661L804.659 754.095L812.522 760.273ZM808.59 763.318L804.357 754.259L804.357 754.259L808.59 763.318ZM797.522 763.182L793.172 772.186L793.203 772.201L793.234 772.216L797.522 763.182ZM793.135 758.932L784.457 763.9L784.465 763.915L784.474 763.929L793.135 758.932ZM791.431 729.091V719.091H781.431V729.091H791.431ZM801.885 729.091H811.885V719.091H801.885V729.091ZM803.317 754.773L796.246 761.844L796.302 761.9L796.359 761.955L803.317 754.773ZM810.931 753.75L801.871 749.517L801.855 749.551L801.839 749.586L810.931 753.75ZM822.067 747.636V729.091H802.067V747.636H822.067ZM812.067 739.091H822.522V719.091H812.067V739.091ZM812.522 729.091V764H832.522V729.091H812.522ZM822.522 754H812.885V774H822.522V754ZM822.885 764V760.273H802.885V764H822.885ZM812.885 750.273H812.522V770.273H812.885V750.273ZM804.659 754.095C804.678 754.07 804.688 754.065 804.665 754.083C804.64 754.103 804.549 754.169 804.357 754.259L812.824 772.378C815.712 771.028 818.319 769.081 820.385 766.451L804.659 754.095ZM804.357 754.259C804.209 754.327 803.868 754.455 803.158 754.455V774.455C806.448 774.455 809.728 773.824 812.824 772.378L804.357 754.259ZM803.158 754.455C802.679 754.455 802.264 754.363 801.809 754.148L793.234 772.216C796.356 773.697 799.698 774.455 803.158 774.455V754.455ZM801.871 754.177C801.91 754.196 801.95 754.219 801.986 754.244C802.021 754.269 802.04 754.287 802.043 754.29C802.051 754.297 801.955 754.208 801.797 753.935L784.474 763.929C786.462 767.376 789.324 770.328 793.172 772.186L801.871 754.177ZM801.814 753.963C801.857 754.039 801.431 753.294 801.431 750.909H781.431C781.431 755.251 782.141 759.855 784.457 763.9L801.814 753.963ZM801.431 750.909V729.091H781.431V750.909H801.431ZM791.431 739.091H801.885V719.091H791.431V739.091ZM791.885 729.091V750.545H811.885V729.091H791.885ZM791.885 750.545C791.885 754.032 792.796 758.393 796.246 761.844L810.388 747.702C811.93 749.243 811.885 750.787 811.885 750.545H791.885ZM796.359 761.955C799.283 764.787 803.005 766.182 806.885 766.182V746.182C807.31 746.182 807.921 746.257 808.61 746.529C809.306 746.804 809.869 747.196 810.275 747.59L796.359 761.955ZM806.885 766.182C809.241 766.182 811.949 765.687 814.515 764.145C817.14 762.566 818.928 760.304 820.023 757.914L801.839 749.586C802.191 748.817 802.934 747.771 804.211 747.003C805.428 746.271 806.484 746.182 806.885 746.182V766.182ZM819.991 757.983C821.553 754.64 822.067 751.042 822.067 747.636H802.067C802.067 749.14 801.824 749.617 801.871 749.517L819.991 757.983ZM852.238 729.727L861.655 733.091L864.447 725.273L857.276 721.089L852.238 729.727ZM849.056 738.636L843.911 747.211L854.371 753.487L858.473 742L849.056 738.636ZM847.715 738.182L845.084 747.829L845.186 747.857L845.29 747.883L847.715 738.182ZM841.306 739.75L848.465 746.732L848.465 746.732L841.306 739.75ZM839.51 764V774H849.51V764H839.51ZM829.056 764H819.056V774H829.056V764ZM829.056 729.091V719.091H819.056V729.091H829.056ZM839.238 729.091H849.238V719.091H839.238V729.091ZM839.238 733.545H829.238V743.545H839.238V733.545ZM839.783 733.545V743.545H847.404L849.425 736.197L839.783 733.545ZM842.76 729.727L838.398 720.729L838.38 720.738L838.362 720.747L842.76 729.727ZM850.056 728.955L847.784 738.693L847.861 738.711L847.938 738.728L850.056 728.955ZM842.82 726.364L839.639 735.273L858.473 742L861.655 733.091L842.82 726.364ZM854.201 730.061C852.535 729.062 850.713 728.623 850.14 728.48L845.29 747.883C845.466 747.927 845.462 747.933 845.34 747.891C845.274 747.869 845.124 747.816 844.918 747.728C844.728 747.647 844.362 747.482 843.911 747.211L854.201 730.061ZM850.346 728.534C848.834 728.122 847.275 727.909 845.692 727.909V747.909C845.473 747.909 845.263 747.878 845.084 747.829L850.346 728.534ZM845.692 727.909C841.292 727.909 837.242 729.595 834.147 732.768L848.465 746.732C848.205 746.999 847.772 747.338 847.17 747.59C846.57 747.842 846.038 747.909 845.692 747.909V727.909ZM834.147 732.768C831.113 735.879 829.51 739.868 829.51 744.182H849.51C849.51 744.497 849.451 744.982 849.228 745.533C849.004 746.085 848.703 746.488 848.465 746.732L834.147 732.768ZM829.51 744.182V764H849.51V744.182H829.51ZM839.51 754H829.056V774H839.51V754ZM839.056 764V729.091H819.056V764H839.056ZM829.056 739.091H839.238V719.091H829.056V739.091ZM829.238 729.091V733.545H849.238V729.091H829.238ZM839.238 743.545H839.783V723.545H839.238V743.545ZM849.425 736.197C849.384 736.347 849.227 736.814 848.788 737.376C848.329 737.966 847.744 738.421 847.159 738.708L838.362 720.747C833.927 722.919 831.283 726.743 830.141 730.894L849.425 736.197ZM847.123 738.725C847.264 738.657 847.337 738.639 847.35 738.636C847.361 738.633 847.348 738.636 847.329 738.636V718.636C844.155 718.636 841.149 719.395 838.398 720.729L847.123 738.725ZM847.329 738.636C847.452 738.636 847.599 738.65 847.784 738.693L852.328 719.216C850.694 718.835 849.023 718.636 847.329 718.636V738.636ZM847.938 738.728C848.06 738.754 848.051 738.76 847.945 738.722C847.843 738.686 847.57 738.582 847.199 738.365L857.276 721.089C855.503 720.055 853.671 719.506 852.173 719.181L847.938 738.728ZM861.351 762.318L855.986 770.757L856.005 770.769L856.023 770.781L861.351 762.318ZM855.692 755.909L846.689 760.261L846.694 760.271L846.698 760.28L855.692 755.909ZM855.692 737.25L864.667 741.661L864.672 741.651L864.677 741.641L855.692 737.25ZM861.351 730.932L866.604 739.441L866.623 739.429L866.642 739.418L861.351 730.932ZM878.988 730.932L873.697 739.418L873.716 739.429L873.735 739.441L878.988 730.932ZM884.647 737.25L875.663 741.641L875.667 741.651L875.672 741.661L884.647 737.25ZM884.647 755.909L893.641 760.28L893.646 760.271L893.65 760.261L884.647 755.909ZM878.988 762.318L884.316 770.781L884.335 770.769L884.353 770.757L878.988 762.318ZM875.215 753.591L883.943 758.472L883.943 758.472L875.215 753.591ZM865.124 739.545L873.816 744.491L873.816 744.491L865.124 739.545ZM865.124 753.591L873.852 748.709L873.852 748.709L865.124 753.591ZM870.17 754.636C868.286 754.636 867.27 754.227 866.68 753.856L856.023 770.781C860.342 773.5 865.205 774.636 870.17 774.636V754.636ZM866.717 753.879C865.884 753.35 865.226 752.648 864.686 751.538L846.698 760.28C848.795 764.594 851.909 768.165 855.986 770.757L866.717 753.879ZM864.696 751.557C864.131 750.389 863.715 748.795 863.715 746.545H843.715C843.715 751.326 844.617 755.975 846.689 760.261L864.696 751.557ZM863.715 746.545C863.715 744.292 864.132 742.748 864.667 741.661L846.718 732.839C844.616 737.115 843.715 741.769 843.715 746.545H863.715ZM864.677 741.641C865.2 740.569 865.825 739.922 866.604 739.441L856.099 722.422C851.969 724.972 848.82 728.537 846.708 732.859L864.677 741.641ZM866.642 739.418C867.238 739.046 868.268 738.636 870.17 738.636V718.636C865.223 718.636 860.374 719.757 856.061 722.446L866.642 739.418ZM870.17 738.636C872.071 738.636 873.101 739.046 873.697 739.418L884.278 722.446C879.965 719.757 875.116 718.636 870.17 718.636V738.636ZM873.735 739.441C874.514 739.922 875.139 740.569 875.663 741.641L893.631 732.859C891.519 728.537 888.37 724.972 884.24 722.422L873.735 739.441ZM875.672 741.661C876.207 742.748 876.624 744.292 876.624 746.545H896.624C896.624 741.769 895.723 737.115 893.621 732.839L875.672 741.661ZM876.624 746.545C876.624 748.795 876.208 750.389 875.643 751.557L893.65 760.261C895.722 755.975 896.624 751.327 896.624 746.545H876.624ZM875.653 751.538C875.113 752.648 874.455 753.35 873.622 753.879L884.353 770.757C888.43 768.165 891.544 764.594 893.641 760.28L875.653 751.538ZM873.66 753.856C873.07 754.227 872.054 754.636 870.17 754.636V774.636C875.134 774.636 879.997 773.5 884.316 770.781L873.66 753.856ZM870.17 766.273C875.485 766.273 880.87 763.965 883.943 758.472L866.487 748.709C866.851 748.059 867.526 747.295 868.51 746.772C869.422 746.287 870.103 746.273 870.17 746.273V766.273ZM883.943 758.472C886.055 754.696 886.715 750.487 886.715 746.545H866.715C866.715 748.422 866.375 748.91 866.487 748.709L883.943 758.472ZM886.715 746.545C886.715 742.617 886.059 738.383 883.907 734.6L866.523 744.491C866.436 744.337 866.489 744.367 866.562 744.709C866.636 745.057 866.715 745.648 866.715 746.545H886.715ZM883.907 734.6C880.797 729.135 875.404 726.909 870.17 726.909V746.909C870.127 746.909 869.47 746.9 868.573 746.431C867.599 745.922 866.908 745.166 866.523 744.491L883.907 734.6ZM870.17 726.909C864.936 726.909 859.542 729.135 856.432 734.6L873.816 744.491C873.432 745.166 872.74 745.922 871.767 746.431C870.869 746.9 870.212 746.909 870.17 746.909V726.909ZM856.432 734.6C854.28 738.383 853.624 742.617 853.624 746.545H873.624C873.624 745.648 873.703 745.057 873.777 744.709C873.85 744.367 873.903 744.337 873.816 744.491L856.432 734.6ZM853.624 746.545C853.624 750.487 854.285 754.696 856.397 758.472L873.852 748.709C873.964 748.91 873.624 748.422 873.624 746.545H853.624ZM856.397 758.472C859.469 763.965 864.854 766.273 870.17 766.273V746.273C870.236 746.273 870.917 746.287 871.829 746.772C872.813 747.295 873.488 748.059 873.852 748.709L856.397 758.472ZM902.51 764V774H912.51V764H902.51ZM892.056 764H882.056V774H892.056V764ZM892.056 729.091V719.091H882.056V729.091H892.056ZM901.692 729.091H911.692V719.091H901.692V729.091ZM901.692 732.818H891.692V742.818H901.692V732.818ZM902.056 732.818V742.818H906.916L909.919 738.996L902.056 732.818ZM905.988 729.773L910.221 738.832L910.221 738.832L905.988 729.773ZM917.056 729.932L912.706 738.936L912.737 738.951L912.768 738.966L917.056 729.932ZM921.442 734.182L912.764 739.15L912.772 739.165L912.78 739.179L921.442 734.182ZM923.147 764V774H933.147V764H923.147ZM912.692 764H902.692V774H912.692V764ZM911.238 738.341L904.167 745.412L904.223 745.468L904.28 745.523L911.238 738.341ZM903.624 739.341L894.564 735.107L894.548 735.142L894.532 735.177L903.624 739.341ZM892.51 745.455V764H912.51V745.455H892.51ZM902.51 754H892.056V774H902.51V754ZM902.056 764V729.091H882.056V764H902.056ZM892.056 739.091H901.692V719.091H892.056V739.091ZM891.692 729.091V732.818H911.692V729.091H891.692ZM901.692 742.818H902.056V722.818H901.692V742.818ZM909.919 738.996C909.9 739.021 909.89 739.026 909.912 739.008C909.938 738.988 910.029 738.922 910.221 738.832L901.754 720.713C898.866 722.063 896.259 724.01 894.193 726.64L909.919 738.996ZM910.221 738.832C910.369 738.764 910.709 738.636 911.42 738.636V718.636C908.13 718.636 904.849 719.267 901.754 720.713L910.221 738.832ZM911.42 738.636C911.87 738.636 912.264 738.722 912.706 738.936L921.406 720.927C918.273 719.414 914.908 718.636 911.42 718.636V738.636ZM912.768 738.966C912.716 738.941 912.664 738.911 912.618 738.879C912.572 738.847 912.544 738.821 912.535 738.813C912.514 738.793 912.606 738.874 912.764 739.15L930.121 729.213C928.133 725.741 925.251 722.752 921.343 720.898L912.768 738.966ZM912.78 739.179C912.734 739.098 912.832 739.236 912.94 739.743C913.049 740.254 913.147 741.045 913.147 742.182H933.147C933.147 737.846 932.439 733.232 930.104 729.185L912.78 739.179ZM913.147 742.182V764H933.147V742.182H913.147ZM923.147 754H912.692V774H923.147V754ZM922.692 764V742.545H902.692V764H922.692ZM922.692 742.545C922.692 739.03 921.756 734.608 918.196 731.159L904.28 745.523C903.531 744.798 903.097 743.999 902.878 743.366C902.677 742.785 902.692 742.453 902.692 742.545H922.692ZM918.309 731.27C915.389 728.35 911.624 726.909 907.692 726.909V746.909C907.249 746.909 906.609 746.83 905.891 746.539C905.164 746.246 904.582 745.827 904.167 745.412L918.309 731.27ZM907.692 726.909C905.334 726.909 902.636 727.405 900.078 728.934C897.465 730.496 895.673 732.735 894.564 735.107L912.684 743.574C912.333 744.325 911.598 745.349 910.34 746.1C909.138 746.819 908.096 746.909 907.692 746.909V726.909ZM894.532 735.177C893.011 738.5 892.51 742.072 892.51 745.455H912.51C912.51 743.928 912.753 743.425 912.716 743.505L894.532 735.177Z" fill="#2F80ED"/>
<mask id="mask0" mask-type="alpha" maskUnits="userSpaceOnUse" x="285" y="236" width="430" height="528">
<path d="M714.436 236V764H596.873L409.186 439.156H405.061V764H285.436V236H404.029L590.686 560.844H594.811V236H714.436Z" fill="url(#paint0_linear)"/>
</mask>
<g mask="url(#mask0)">
<circle cx="295" cy="244" r="6" fill="#2F80ED"/>
<circle cx="312" cy="244" r="6" fill="#2F80ED"/>
<circle cx="329" cy="244" r="6" fill="#2F80ED"/>
<circle cx="346" cy="244" r="6" fill="#2F80ED"/>
<circle cx="363" cy="244" r="6" fill="#2F80ED"/>
<circle cx="380" cy="244" r="6" fill="#2F80ED"/>
<circle cx="397" cy="244" r="6" fill="#2F80ED"/>
<circle cx="414" cy="244" r="6" fill="#2F80ED"/>
<circle cx="431" cy="244" r="6" fill="#2F80ED"/>
<circle cx="448" cy="244" r="6" fill="#2F80ED"/>
<circle cx="465" cy="244" r="6" fill="#2F80ED"/>
<circle cx="482" cy="244" r="6" fill="#2F80ED"/>
<circle cx="499" cy="244" r="6" fill="#2F80ED"/>
<circle cx="516" cy="244" r="6" fill="#2F80ED"/>
<circle cx="533" cy="244" r="6" fill="#2F80ED"/>
<circle cx="550" cy="244" r="6" fill="#2F80ED"/>
<circle cx="567" cy="244" r="6" fill="#2F80ED"/>
<circle cx="584" cy="244" r="6" fill="#2F80ED"/>
<circle cx="601" cy="244" r="6" fill="#2F80ED"/>
<circle cx="618" cy="244" r="6" fill="#2F80ED"/>
<circle cx="635" cy="244" r="6" fill="#2F80ED"/>
<circle cx="652" cy="244" r="6" fill="#2F80ED"/>
<circle cx="669" cy="244" r="6" fill="#2F80ED"/>
<circle cx="686" cy="244" r="6" fill="#2F80ED"/>
<circle cx="703" cy="244" r="6" fill="#2F80ED"/>
<circle cx="720" cy="244" r="6" fill="#2F80ED"/>
<circle cx="295" cy="261" r="6" fill="#2F80ED"/>
<circle cx="312" cy="261" r="6" fill="#2F80ED"/>
<circle cx="329" cy="261" r="6" fill="#2F80ED"/>
<circle cx="346" cy="261" r="6" fill="#2F80ED"/>
<circle cx="363" cy="261" r="6" fill="#2F80ED"/>
<circle cx="380" cy="261" r="6" fill="#2F80ED"/>
<circle cx="397" cy="261" r="6" fill="#2F80ED"/>
<circle cx="414" cy="261" r="6" fill="#2F80ED"/>
<circle cx="431" cy="261" r="6" fill="#2F80ED"/>
<circle cx="448" cy="261" r="6" fill="#2F80ED"/>
<circle cx="465" cy="261" r="6" fill="#2F80ED"/>
<circle cx="482" cy="261" r="6" fill="#2F80ED"/>
<circle cx="499" cy="261" r="6" fill="#2F80ED"/>
<circle cx="516" cy="261" r="6" fill="#2F80ED"/>
<circle cx="533" cy="261" r="6" fill="#2F80ED"/>
<circle cx="550" cy="261" r="6" fill="#2F80ED"/>
<circle cx="567" cy="261" r="6" fill="#2F80ED"/>
<circle cx="584" cy="261" r="6" fill="#2F80ED"/>
<circle cx="601" cy="261" r="6" fill="#2F80ED"/>
<circle cx="618" cy="261" r="6" fill="#2F80ED"/>
<circle cx="635" cy="261" r="6" fill="#2F80ED"/>
<circle cx="652" cy="261" r="6" fill="#2F80ED"/>
<circle cx="669" cy="261" r="6" fill="#2F80ED"/>
<circle cx="686" cy="261" r="6" fill="#2F80ED"/>
<circle cx="703" cy="261" r="6" fill="#2F80ED"/>
<circle cx="720" cy="261" r="6" fill="#2F80ED"/>
<circle cx="295" cy="278" r="6" fill="#2F80ED"/>
<circle cx="312" cy="278" r="6" fill="#2F80ED"/>
<circle cx="329" cy="278" r="6" fill="#2F80ED"/>
<circle cx="346" cy="278" r="6" fill="#2F80ED"/>
<circle cx="363" cy="278" r="6" fill="#2F80ED"/>
<circle cx="380" cy="278" r="6" fill="#2F80ED"/>
<circle cx="397" cy="278" r="6" fill="#2F80ED"/>
<circle cx="414" cy="278" r="6" fill="#2F80ED"/>
<circle cx="431" cy="278" r="6" fill="#2F80ED"/>
<circle cx="448" cy="278" r="6" fill="#2F80ED"/>
<circle cx="465" cy="278" r="6" fill="#2F80ED"/>
<circle cx="482" cy="278" r="6" fill="#2F80ED"/>
<circle cx="499" cy="278" r="6" fill="#2F80ED"/>
<circle cx="516" cy="278" r="6" fill="#2F80ED"/>
<circle cx="533" cy="278" r="6" fill="#2F80ED"/>
<circle cx="550" cy="278" r="6" fill="#2F80ED"/>
<circle cx="567" cy="278" r="6" fill="#2F80ED"/>
<circle cx="584" cy="278" r="6" fill="#2F80ED"/>
<circle cx="601" cy="278" r="6" fill="#2F80ED"/>
<circle cx="618" cy="278" r="6" fill="#2F80ED"/>
<circle cx="635" cy="278" r="6" fill="#2F80ED"/>
<circle cx="652" cy="278" r="6" fill="#2F80ED"/>
<circle cx="669" cy="278" r="6" fill="#2F80ED"/>
<circle cx="686" cy="278" r="6" fill="#2F80ED"/>
<circle cx="703" cy="278" r="6" fill="#2F80ED"/>
<circle cx="720" cy="278" r="6" fill="#2F80ED"/>
<circle cx="295" cy="295" r="6" fill="#2F80ED"/>
<circle cx="312" cy="295" r="6" fill="#2F80ED"/>
<circle cx="329" cy="295" r="6" fill="#2F80ED"/>
<circle cx="346" cy="295" r="6" fill="#2F80ED"/>
<circle cx="363" cy="295" r="6" fill="#2F80ED"/>
<circle cx="380" cy="295" r="6" fill="#2F80ED"/>
<circle cx="397" cy="295" r="6" fill="#2F80ED"/>
<circle cx="414" cy="295" r="6" fill="#2F80ED"/>
<circle cx="431" cy="295" r="6" fill="#2F80ED"/>
<circle cx="448" cy="295" r="6" fill="#2F80ED"/>
<circle cx="465" cy="295" r="6" fill="#2F80ED"/>
<circle cx="482" cy="295" r="6" fill="#2F80ED"/>
<circle cx="499" cy="295" r="6" fill="#2F80ED"/>
<circle cx="516" cy="295" r="6" fill="#2F80ED"/>
<circle cx="533" cy="295" r="6" fill="#2F80ED"/>
<circle cx="550" cy="295" r="6" fill="#2F80ED"/>
<circle cx="567" cy="295" r="6" fill="#2F80ED"/>
<circle cx="584" cy="295" r="6" fill="#2F80ED"/>
<circle cx="601" cy="295" r="6" fill="#2F80ED"/>
<circle cx="618" cy="295" r="6" fill="#2F80ED"/>
<circle cx="635" cy="295" r="6" fill="#2F80ED"/>
<circle cx="652" cy="295" r="6" fill="#2F80ED"/>
<circle cx="669" cy="295" r="6" fill="#2F80ED"/>
<circle cx="686" cy="295" r="6" fill="#2F80ED"/>
<circle cx="703" cy="295" r="6" fill="#2F80ED"/>
<circle cx="720" cy="295" r="6" fill="#2F80ED"/>
<circle cx="295" cy="312" r="6" fill="#2F80ED"/>
<circle cx="312" cy="312" r="6" fill="#2F80ED"/>
<circle cx="329" cy="312" r="6" fill="#2F80ED"/>
<circle cx="346" cy="312" r="6" fill="#2F80ED"/>
<circle cx="363" cy="312" r="6" fill="#2F80ED"/>
<circle cx="380" cy="312" r="6" fill="#2F80ED"/>
<circle cx="397" cy="312" r="6" fill="#2F80ED"/>
<circle cx="414" cy="312" r="6" fill="#2F80ED"/>
<circle cx="431" cy="312" r="6" fill="#2F80ED"/>
<circle cx="448" cy="312" r="6" fill="#2F80ED"/>
<circle cx="465" cy="312" r="6" fill="#2F80ED"/>
<circle cx="482" cy="312" r="6" fill="#2F80ED"/>
<circle cx="499" cy="312" r="6" fill="#2F80ED"/>
<circle cx="516" cy="312" r="6" fill="#2F80ED"/>
<circle cx="533" cy="312" r="6" fill="#2F80ED"/>
<circle cx="550" cy="312" r="6" fill="#2F80ED"/>
<circle cx="567" cy="312" r="6" fill="#2F80ED"/>
<circle cx="584" cy="312" r="6" fill="#2F80ED"/>
<circle cx="601" cy="312" r="6" fill="#2F80ED"/>
<circle cx="618" cy="312" r="6" fill="#2F80ED"/>
<circle cx="635" cy="312" r="6" fill="#2F80ED"/>
<circle cx="652" cy="312" r="6" fill="#2F80ED"/>
<circle cx="669" cy="312" r="6" fill="#2F80ED"/>
<circle cx="686" cy="312" r="6" fill="#2F80ED"/>
<circle cx="703" cy="312" r="6" fill="#2F80ED"/>
<circle cx="720" cy="312" r="6" fill="#2F80ED"/>
<circle cx="295" cy="329" r="6" fill="#2F80ED"/>
<circle cx="312" cy="329" r="6" fill="#2F80ED"/>
<circle cx="329" cy="329" r="6" fill="#2F80ED"/>
<circle cx="346" cy="329" r="6" fill="#2F80ED"/>
<circle cx="363" cy="329" r="6" fill="#2F80ED"/>
<circle cx="380" cy="329" r="6" fill="#2F80ED"/>
<circle cx="397" cy="329" r="6" fill="#2F80ED"/>
<circle cx="414" cy="329" r="6" fill="#2F80ED"/>
<circle cx="431" cy="329" r="6" fill="#2F80ED"/>
<circle cx="448" cy="329" r="6" fill="#2F80ED"/>
<circle cx="465" cy="329" r="6" fill="#2F80ED"/>
<circle cx="482" cy="329" r="6" fill="#2F80ED"/>
<circle cx="499" cy="329" r="6" fill="#2F80ED"/>
<circle cx="516" cy="329" r="6" fill="#2F80ED"/>
<circle cx="533" cy="329" r="6" fill="#2F80ED"/>
<circle cx="550" cy="329" r="6" fill="#2F80ED"/>
<circle cx="567" cy="329" r="6" fill="#2F80ED"/>
<circle cx="584" cy="329" r="6" fill="#2F80ED"/>
<circle cx="601" cy="329" r="6" fill="#2F80ED"/>
<circle cx="618" cy="329" r="6" fill="#2F80ED"/>
<circle cx="635" cy="329" r="6" fill="#2F80ED"/>
<circle cx="652" cy="329" r="6" fill="#2F80ED"/>
<circle cx="669" cy="329" r="6" fill="#2F80ED"/>
<circle cx="686" cy="329" r="6" fill="#2F80ED"/>
<circle cx="703" cy="329" r="6" fill="#2F80ED"/>
<circle cx="720" cy="329" r="6" fill="#2F80ED"/>
<circle cx="295" cy="346" r="6" fill="#2F80ED"/>
<circle cx="312" cy="346" r="6" fill="#2F80ED"/>
<circle cx="329" cy="346" r="6" fill="#2F80ED"/>
<circle cx="346" cy="346" r="6" fill="#2F80ED"/>
<circle cx="363" cy="346" r="6" fill="#2F80ED"/>
<circle cx="380" cy="346" r="6" fill="#2F80ED"/>
<circle cx="397" cy="346" r="6" fill="#2F80ED"/>
<circle cx="414" cy="346" r="6" fill="#2F80ED"/>
<circle cx="431" cy="346" r="6" fill="#2F80ED"/>
<circle cx="448" cy="346" r="6" fill="#2F80ED"/>
<circle cx="465" cy="346" r="6" fill="#2F80ED"/>
<circle cx="482" cy="346" r="6" fill="#2F80ED"/>
<circle cx="499" cy="346" r="6" fill="#2F80ED"/>
<circle cx="516" cy="346" r="6" fill="#2F80ED"/>
<circle cx="533" cy="346" r="6" fill="#2F80ED"/>
<circle cx="550" cy="346" r="6" fill="#2F80ED"/>
<circle cx="567" cy="346" r="6" fill="#2F80ED"/>
<circle cx="584" cy="346" r="6" fill="#2F80ED"/>
<circle cx="601" cy="346" r="6" fill="#2F80ED"/>
<circle cx="618" cy="346" r="6" fill="#2F80ED"/>
<circle cx="635" cy="346" r="6" fill="#2F80ED"/>
<circle cx="652" cy="346" r="6" fill="#2F80ED"/>
<circle cx="669" cy="346" r="6" fill="#2F80ED"/>
<circle cx="686" cy="346" r="6" fill="#2F80ED"/>
<circle cx="703" cy="346" r="6" fill="#2F80ED"/>
<circle cx="720" cy="346" r="6" fill="#2F80ED"/>
<circle cx="295" cy="363" r="6" fill="#2F80ED"/>
<circle cx="312" cy="363" r="6" fill="#2F80ED"/>
<circle cx="329" cy="363" r="6" fill="#2F80ED"/>
<circle cx="346" cy="363" r="6" fill="#2F80ED"/>
<circle cx="363" cy="363" r="6" fill="#2F80ED"/>
<circle cx="380" cy="363" r="6" fill="#2F80ED"/>
<circle cx="397" cy="363" r="6" fill="#2F80ED"/>
<circle cx="414" cy="363" r="6" fill="#2F80ED"/>
<circle cx="431" cy="363" r="6" fill="#2F80ED"/>
<circle cx="448" cy="363" r="6" fill="#2F80ED"/>
<circle cx="465" cy="363" r="6" fill="#2F80ED"/>
<circle cx="482" cy="363" r="6" fill="#2F80ED"/>
<circle cx="499" cy="363" r="6" fill="#2F80ED"/>
<circle cx="516" cy="363" r="6" fill="#2F80ED"/>
<circle cx="533" cy="363" r="6" fill="#2F80ED"/>
<circle cx="550" cy="363" r="6" fill="#2F80ED"/>
<circle cx="567" cy="363" r="6" fill="#2F80ED"/>
<circle cx="584" cy="363" r="6" fill="#2F80ED"/>
<circle cx="601" cy="363" r="6" fill="#2F80ED"/>
<circle cx="618" cy="363" r="6" fill="#2F80ED"/>
<circle cx="635" cy="363" r="6" fill="#2F80ED"/>
<circle cx="652" cy="363" r="6" fill="#2F80ED"/>
<circle cx="669" cy="363" r="6" fill="#2F80ED"/>
<circle cx="686" cy="363" r="6" fill="#2F80ED"/>
<circle cx="703" cy="363" r="6" fill="#2F80ED"/>
<circle cx="720" cy="363" r="6" fill="#2F80ED"/>
<circle cx="295" cy="380" r="6" fill="#2F80ED"/>
<circle cx="312" cy="380" r="6" fill="#2F80ED"/>
<circle cx="329" cy="380" r="6" fill="#2F80ED"/>
<circle cx="346" cy="380" r="6" fill="#2F80ED"/>
<circle cx="363" cy="380" r="6" fill="#2F80ED"/>
<circle cx="380" cy="380" r="6" fill="#2F80ED"/>
<circle cx="397" cy="380" r="6" fill="#2F80ED"/>
<circle cx="414" cy="380" r="6" fill="#2F80ED"/>
<circle cx="431" cy="380" r="6" fill="#2F80ED"/>
<circle cx="448" cy="380" r="6" fill="#2F80ED"/>
<circle cx="465" cy="380" r="6" fill="#2F80ED"/>
<circle cx="482" cy="380" r="6" fill="#2F80ED"/>
<circle cx="499" cy="380" r="6" fill="#2F80ED"/>
<circle cx="516" cy="380" r="6" fill="#2F80ED"/>
<circle cx="533" cy="380" r="6" fill="#2F80ED"/>
<circle cx="550" cy="380" r="6" fill="#2F80ED"/>
<circle cx="567" cy="380" r="6" fill="#2F80ED"/>
<circle cx="584" cy="380" r="6" fill="#2F80ED"/>
<circle cx="601" cy="380" r="6" fill="#2F80ED"/>
<circle cx="618" cy="380" r="6" fill="#2F80ED"/>
<circle cx="635" cy="380" r="6" fill="#2F80ED"/>
<circle cx="652" cy="380" r="6" fill="#2F80ED"/>
<circle cx="669" cy="380" r="6" fill="#2F80ED"/>
<circle cx="686" cy="380" r="6" fill="#2F80ED"/>
<circle cx="703" cy="380" r="6" fill="#2F80ED"/>
<circle cx="720" cy="380" r="6" fill="#2F80ED"/>
<circle cx="295" cy="397" r="6" fill="#2F80ED"/>
<circle cx="312" cy="397" r="6" fill="#2F80ED"/>
<circle cx="329" cy="397" r="6" fill="#2F80ED"/>
<circle cx="346" cy="397" r="6" fill="#2F80ED"/>
<circle cx="363" cy="397" r="6" fill="#2F80ED"/>
<circle cx="380" cy="397" r="6" fill="#2F80ED"/>
<circle cx="397" cy="397" r="6" fill="#2F80ED"/>
<circle cx="414" cy="397" r="6" fill="#2F80ED"/>
<circle cx="431" cy="397" r="6" fill="#2F80ED"/>
<circle cx="448" cy="397" r="6" fill="#2F80ED"/>
<circle cx="465" cy="397" r="6" fill="#2F80ED"/>
<circle cx="482" cy="397" r="6" fill="#2F80ED"/>
<circle cx="499" cy="397" r="6" fill="#2F80ED"/>
<circle cx="516" cy="397" r="6" fill="#2F80ED"/>
<circle cx="533" cy="397" r="6" fill="#2F80ED"/>
<circle cx="550" cy="397" r="6" fill="#2F80ED"/>
<circle cx="567" cy="397" r="6" fill="#2F80ED"/>
<circle cx="584" cy="397" r="6" fill="#2F80ED"/>
<circle cx="601" cy="397" r="6" fill="#2F80ED"/>
<circle cx="618" cy="397" r="6" fill="#2F80ED"/>
<circle cx="635" cy="397" r="6" fill="#2F80ED"/>
<circle cx="652" cy="397" r="6" fill="#2F80ED"/>
<circle cx="669" cy="397" r="6" fill="#2F80ED"/>
<circle cx="686" cy="397" r="6" fill="#2F80ED"/>
<circle cx="703" cy="397" r="6" fill="#2F80ED"/>
<circle cx="720" cy="397" r="6" fill="#2F80ED"/>
<circle cx="295" cy="414" r="6" fill="#2F80ED"/>
<circle cx="312" cy="414" r="6" fill="#2F80ED"/>
<circle cx="329" cy="414" r="6" fill="#2F80ED"/>
<circle cx="346" cy="414" r="6" fill="#2F80ED"/>
<circle cx="363" cy="414" r="6" fill="#2F80ED"/>
<circle cx="380" cy="414" r="6" fill="#2F80ED"/>
<circle cx="397" cy="414" r="6" fill="#2F80ED"/>
<circle cx="414" cy="414" r="6" fill="#2F80ED"/>
<circle cx="431" cy="414" r="6" fill="#2F80ED"/>
<circle cx="448" cy="414" r="6" fill="#2F80ED"/>
<circle cx="465" cy="414" r="6" fill="#2F80ED"/>
<circle cx="482" cy="414" r="6" fill="#2F80ED"/>
<circle cx="499" cy="414" r="6" fill="#2F80ED"/>
<circle cx="516" cy="414" r="6" fill="#2F80ED"/>
<circle cx="533" cy="414" r="6" fill="#2F80ED"/>
<circle cx="550" cy="414" r="6" fill="#2F80ED"/>
<circle cx="567" cy="414" r="6" fill="#2F80ED"/>
<circle cx="584" cy="414" r="6" fill="#2F80ED"/>
<circle cx="601" cy="414" r="6" fill="#2F80ED"/>
<circle cx="618" cy="414" r="6" fill="#2F80ED"/>
<circle cx="635" cy="414" r="6" fill="#2F80ED"/>
<circle cx="652" cy="414" r="6" fill="#2F80ED"/>
<circle cx="669" cy="414" r="6" fill="#2F80ED"/>
<circle cx="686" cy="414" r="6" fill="#2F80ED"/>
<circle cx="703" cy="414" r="6" fill="#2F80ED"/>
<circle cx="720" cy="414" r="6" fill="#2F80ED"/>
<circle cx="295" cy="431" r="6" fill="#2F80ED"/>
<circle cx="312" cy="431" r="6" fill="#2F80ED"/>
<circle cx="329" cy="431" r="6" fill="#2F80ED"/>
<circle cx="346" cy="431" r="6" fill="#2F80ED"/>
<circle cx="363" cy="431" r="6" fill="#2F80ED"/>
<circle cx="380" cy="431" r="6" fill="#2F80ED"/>
<circle cx="397" cy="431" r="6" fill="#2F80ED"/>
<circle cx="414" cy="431" r="6" fill="#2F80ED"/>
<circle cx="431" cy="431" r="6" fill="#2F80ED"/>
<circle cx="448" cy="431" r="6" fill="#2F80ED"/>
<circle cx="465" cy="431" r="6" fill="#2F80ED"/>
<circle cx="482" cy="431" r="6" fill="#2F80ED"/>
<circle cx="499" cy="431" r="6" fill="#2F80ED"/>
<circle cx="516" cy="431" r="6" fill="#2F80ED"/>
<circle cx="533" cy="431" r="6" fill="#2F80ED"/>
<circle cx="550" cy="431" r="6" fill="#2F80ED"/>
<circle cx="567" cy="431" r="6" fill="#2F80ED"/>
<circle cx="584" cy="431" r="6" fill="#2F80ED"/>
<circle cx="601" cy="431" r="6" fill="#2F80ED"/>
<circle cx="618" cy="431" r="6" fill="#2F80ED"/>
<circle cx="635" cy="431" r="6" fill="#2F80ED"/>
<circle cx="652" cy="431" r="6" fill="#2F80ED"/>
<circle cx="669" cy="431" r="6" fill="#2F80ED"/>
<circle cx="686" cy="431" r="6" fill="#2F80ED"/>
<circle cx="703" cy="431" r="6" fill="#2F80ED"/>
<circle cx="720" cy="431" r="6" fill="#2F80ED"/>
<circle cx="295" cy="448" r="6" fill="#2F80ED"/>
<circle cx="312" cy="448" r="6" fill="#2F80ED"/>
<circle cx="329" cy="448" r="6" fill="#2F80ED"/>
<circle cx="346" cy="448" r="6" fill="#2F80ED"/>
<circle cx="363" cy="448" r="6" fill="#2F80ED"/>
<circle cx="380" cy="448" r="6" fill="#2F80ED"/>
<circle cx="397" cy="448" r="6" fill="#2F80ED"/>
<circle cx="414" cy="448" r="6" fill="#2F80ED"/>
<circle cx="431" cy="448" r="6" fill="#2F80ED"/>
<circle cx="448" cy="448" r="6" fill="#2F80ED"/>
<circle cx="465" cy="448" r="6" fill="#2F80ED"/>
<circle cx="482" cy="448" r="6" fill="#2F80ED"/>
<circle cx="499" cy="448" r="6" fill="#2F80ED"/>
<circle cx="516" cy="448" r="6" fill="#2F80ED"/>
<circle cx="533" cy="448" r="6" fill="#2F80ED"/>
<circle cx="550" cy="448" r="6" fill="#2F80ED"/>
<circle cx="567" cy="448" r="6" fill="#2F80ED"/>
<circle cx="584" cy="448" r="6" fill="#2F80ED"/>
<circle cx="601" cy="448" r="6" fill="#2F80ED"/>
<circle cx="618" cy="448" r="6" fill="#2F80ED"/>
<circle cx="635" cy="448" r="6" fill="#2F80ED"/>
<circle cx="652" cy="448" r="6" fill="#2F80ED"/>
<circle cx="669" cy="448" r="6" fill="#2F80ED"/>
<circle cx="686" cy="448" r="6" fill="#2F80ED"/>
<circle cx="703" cy="448" r="6" fill="#2F80ED"/>
<circle cx="720" cy="448" r="6" fill="#2F80ED"/>
<circle cx="295" cy="465" r="6" fill="#2F80ED"/>
<circle cx="312" cy="465" r="6" fill="#2F80ED"/>
<circle cx="329" cy="465" r="6" fill="#2F80ED"/>
<circle cx="346" cy="465" r="6" fill="#2F80ED"/>
<circle cx="363" cy="465" r="6" fill="#2F80ED"/>
<circle cx="380" cy="465" r="6" fill="#2F80ED"/>
<circle cx="397" cy="465" r="6" fill="#2F80ED"/>
<circle cx="414" cy="465" r="6" fill="#2F80ED"/>
<circle cx="431" cy="465" r="6" fill="#2F80ED"/>
<circle cx="448" cy="465" r="6" fill="#2F80ED"/>
<circle cx="465" cy="465" r="6" fill="#2F80ED"/>
<circle cx="482" cy="465" r="6" fill="#2F80ED"/>
<circle cx="499" cy="465" r="6" fill="#2F80ED"/>
<circle cx="516" cy="465" r="6" fill="#2F80ED"/>
<circle cx="533" cy="465" r="6" fill="#2F80ED"/>
<circle cx="550" cy="465" r="6" fill="#2F80ED"/>
<circle cx="567" cy="465" r="6" fill="#2F80ED"/>
<circle cx="584" cy="465" r="6" fill="#2F80ED"/>
<circle cx="601" cy="465" r="6" fill="#2F80ED"/>
<circle cx="618" cy="465" r="6" fill="#2F80ED"/>
<circle cx="635" cy="465" r="6" fill="#2F80ED"/>
<circle cx="652" cy="465" r="6" fill="#2F80ED"/>
<circle cx="669" cy="465" r="6" fill="#2F80ED"/>
<circle cx="686" cy="465" r="6" fill="#2F80ED"/>
<circle cx="703" cy="465" r="6" fill="#2F80ED"/>
<circle cx="720" cy="465" r="6" fill="#2F80ED"/>
<circle cx="295" cy="482" r="6" fill="#2F80ED"/>
<circle cx="312" cy="482" r="6" fill="#2F80ED"/>
<circle cx="329" cy="482" r="6" fill="#2F80ED"/>
<circle cx="346" cy="482" r="6" fill="#2F80ED"/>
<circle cx="363" cy="482" r="6" fill="#2F80ED"/>
<circle cx="380" cy="482" r="6" fill="#2F80ED"/>
<circle cx="397" cy="482" r="6" fill="#2F80ED"/>
<circle cx="414" cy="482" r="6" fill="#2F80ED"/>
<circle cx="431" cy="482" r="6" fill="#2F80ED"/>
<circle cx="448" cy="482" r="6" fill="#2F80ED"/>
<circle cx="465" cy="482" r="6" fill="#2F80ED"/>
<circle cx="482" cy="482" r="6" fill="#2F80ED"/>
<circle cx="499" cy="482" r="6" fill="#2F80ED"/>
<circle cx="516" cy="482" r="6" fill="#2F80ED"/>
<circle cx="533" cy="482" r="6" fill="#2F80ED"/>
<circle cx="550" cy="482" r="6" fill="#2F80ED"/>
<circle cx="567" cy="482" r="6" fill="#2F80ED"/>
<circle cx="584" cy="482" r="6" fill="#2F80ED"/>
<circle cx="601" cy="482" r="6" fill="#2F80ED"/>
<circle cx="618" cy="482" r="6" fill="#2F80ED"/>
<circle cx="635" cy="482" r="6" fill="#2F80ED"/>
<circle cx="652" cy="482" r="6" fill="#2F80ED"/>
<circle cx="669" cy="482" r="6" fill="#2F80ED"/>
<circle cx="686" cy="482" r="6" fill="#2F80ED"/>
<circle cx="703" cy="482" r="6" fill="#2F80ED"/>
<circle cx="720" cy="482" r="6" fill="#2F80ED"/>
<circle cx="295" cy="499" r="6" fill="#2F80ED"/>
<circle cx="312" cy="499" r="6" fill="#2F80ED"/>
<circle cx="329" cy="499" r="6" fill="#2F80ED"/>
<circle cx="346" cy="499" r="6" fill="#2F80ED"/>
<circle cx="363" cy="499" r="6" fill="#2F80ED"/>
<circle cx="380" cy="499" r="6" fill="#2F80ED"/>
<circle cx="397" cy="499" r="6" fill="#2F80ED"/>
<circle cx="414" cy="499" r="6" fill="#2F80ED"/>
<circle cx="431" cy="499" r="6" fill="#2F80ED"/>
<circle cx="448" cy="499" r="6" fill="#2F80ED"/>
<circle cx="465" cy="499" r="6" fill="#2F80ED"/>
<circle cx="482" cy="499" r="6" fill="#2F80ED"/>
<circle cx="499" cy="499" r="6" fill="#2F80ED"/>
<circle cx="516" cy="499" r="6" fill="#2F80ED"/>
<circle cx="533" cy="499" r="6" fill="#2F80ED"/>
<circle cx="550" cy="499" r="6" fill="#2F80ED"/>
<circle cx="567" cy="499" r="6" fill="#2F80ED"/>
<circle cx="584" cy="499" r="6" fill="#2F80ED"/>
<circle cx="601" cy="499" r="6" fill="#2F80ED"/>
<circle cx="618" cy="499" r="6" fill="#2F80ED"/>
<circle cx="635" cy="499" r="6" fill="#2F80ED"/>
<circle cx="652" cy="499" r="6" fill="#2F80ED"/>
<circle cx="669" cy="499" r="6" fill="#2F80ED"/>
<circle cx="686" cy="499" r="6" fill="#2F80ED"/>
<circle cx="703" cy="499" r="6" fill="#2F80ED"/>
<circle cx="720" cy="499" r="6" fill="#2F80ED"/>
<circle cx="295" cy="516" r="6" fill="#2F80ED"/>
<circle cx="312" cy="516" r="6" fill="#2F80ED"/>
<circle cx="329" cy="516" r="6" fill="#2F80ED"/>
<circle cx="346" cy="516" r="6" fill="#2F80ED"/>
<circle cx="363" cy="516" r="6" fill="#2F80ED"/>
<circle cx="380" cy="516" r="6" fill="#2F80ED"/>
<circle cx="397" cy="516" r="6" fill="#2F80ED"/>
<circle cx="414" cy="516" r="6" fill="#2F80ED"/>
<circle cx="431" cy="516" r="6" fill="#2F80ED"/>
<circle cx="448" cy="516" r="6" fill="#2F80ED"/>
<circle cx="465" cy="516" r="6" fill="#2F80ED"/>
<circle cx="482" cy="516" r="6" fill="#2F80ED"/>
<circle cx="499" cy="516" r="6" fill="#2F80ED"/>
<circle cx="516" cy="516" r="6" fill="#2F80ED"/>
<circle cx="533" cy="516" r="6" fill="#2F80ED"/>
<circle cx="550" cy="516" r="6" fill="#2F80ED"/>
<circle cx="567" cy="516" r="6" fill="#2F80ED"/>
<circle cx="584" cy="516" r="6" fill="#2F80ED"/>
<circle cx="601" cy="516" r="6" fill="#2F80ED"/>
<circle cx="618" cy="516" r="6" fill="#2F80ED"/>
<circle cx="635" cy="516" r="6" fill="#2F80ED"/>
<circle cx="652" cy="516" r="6" fill="#2F80ED"/>
<circle cx="669" cy="516" r="6" fill="#2F80ED"/>
<circle cx="686" cy="516" r="6" fill="#2F80ED"/>
<circle cx="703" cy="516" r="6" fill="#2F80ED"/>
<circle cx="720" cy="516" r="6" fill="#2F80ED"/>
<circle cx="295" cy="533" r="6" fill="#2F80ED"/>
<circle cx="312" cy="533" r="6" fill="#2F80ED"/>
<circle cx="329" cy="533" r="6" fill="#2F80ED"/>
<circle cx="346" cy="533" r="6" fill="#2F80ED"/>
<circle cx="363" cy="533" r="6" fill="#2F80ED"/>
<circle cx="380" cy="533" r="6" fill="#2F80ED"/>
<circle cx="397" cy="533" r="6" fill="#2F80ED"/>
<circle cx="414" cy="533" r="6" fill="#2F80ED"/>
<circle cx="431" cy="533" r="6" fill="#2F80ED"/>
<circle cx="448" cy="533" r="6" fill="#2F80ED"/>
<circle cx="465" cy="533" r="6" fill="#2F80ED"/>
<circle cx="482" cy="533" r="6" fill="#2F80ED"/>
<circle cx="499" cy="533" r="6" fill="#2F80ED"/>
<circle cx="516" cy="533" r="6" fill="#2F80ED"/>
<circle cx="533" cy="533" r="6" fill="#2F80ED"/>
<circle cx="550" cy="533" r="6" fill="#2F80ED"/>
<circle cx="567" cy="533" r="6" fill="#2F80ED"/>
<circle cx="584" cy="533" r="6" fill="#2F80ED"/>
<circle cx="601" cy="533" r="6" fill="#2F80ED"/>
<circle cx="618" cy="533" r="6" fill="#2F80ED"/>
<circle cx="635" cy="533" r="6" fill="#2F80ED"/>
<circle cx="652" cy="533" r="6" fill="#2F80ED"/>
<circle cx="669" cy="533" r="6" fill="#2F80ED"/>
<circle cx="686" cy="533" r="6" fill="#2F80ED"/>
<circle cx="703" cy="533" r="6" fill="#2F80ED"/>
<circle cx="720" cy="533" r="6" fill="#2F80ED"/>
<circle cx="295" cy="550" r="6" fill="#2F80ED"/>
<circle cx="312" cy="550" r="6" fill="#2F80ED"/>
<circle cx="329" cy="550" r="6" fill="#2F80ED"/>
<circle cx="346" cy="550" r="6" fill="#2F80ED"/>
<circle cx="363" cy="550" r="6" fill="#2F80ED"/>
<circle cx="380" cy="550" r="6" fill="#2F80ED"/>
<circle cx="397" cy="550" r="6" fill="#2F80ED"/>
<circle cx="414" cy="550" r="6" fill="#2F80ED"/>
<circle cx="431" cy="550" r="6" fill="#2F80ED"/>
<circle cx="448" cy="550" r="6" fill="#2F80ED"/>
<circle cx="465" cy="550" r="6" fill="#2F80ED"/>
<circle cx="482" cy="550" r="6" fill="#2F80ED"/>
<circle cx="499" cy="550" r="6" fill="#2F80ED"/>
<circle cx="516" cy="550" r="6" fill="#2F80ED"/>
<circle cx="533" cy="550" r="6" fill="#2F80ED"/>
<circle cx="550" cy="550" r="6" fill="#2F80ED"/>
<circle cx="567" cy="550" r="6" fill="#2F80ED"/>
<circle cx="584" cy="550" r="6" fill="#2F80ED"/>
<circle cx="601" cy="550" r="6" fill="#2F80ED"/>
<circle cx="618" cy="550" r="6" fill="#2F80ED"/>
<circle cx="635" cy="550" r="6" fill="#2F80ED"/>
<circle cx="652" cy="550" r="6" fill="#2F80ED"/>
<circle cx="669" cy="550" r="6" fill="#2F80ED"/>
<circle cx="686" cy="550" r="6" fill="#2F80ED"/>
<circle cx="703" cy="550" r="6" fill="#2F80ED"/>
<circle cx="720" cy="550" r="6" fill="#2F80ED"/>
<circle cx="295" cy="567" r="6" fill="#2F80ED"/>
<circle cx="312" cy="567" r="6" fill="#2F80ED"/>
<circle cx="329" cy="567" r="6" fill="#2F80ED"/>
<circle cx="346" cy="567" r="6" fill="#2F80ED"/>
<circle cx="363" cy="567" r="6" fill="#2F80ED"/>
<circle cx="380" cy="567" r="6" fill="#2F80ED"/>
<circle cx="397" cy="567" r="6" fill="#2F80ED"/>
<circle cx="414" cy="567" r="6" fill="#2F80ED"/>
<circle cx="431" cy="567" r="6" fill="#2F80ED"/>
<circle cx="448" cy="567" r="6" fill="#2F80ED"/>
<circle cx="465" cy="567" r="6" fill="#2F80ED"/>
<circle cx="482" cy="567" r="6" fill="#2F80ED"/>
<circle cx="499" cy="567" r="6" fill="#2F80ED"/>
<circle cx="516" cy="567" r="6" fill="#2F80ED"/>
<circle cx="533" cy="567" r="6" fill="#2F80ED"/>
<circle cx="550" cy="567" r="6" fill="#2F80ED"/>
<circle cx="567" cy="567" r="6" fill="#2F80ED"/>
<circle cx="584" cy="567" r="6" fill="#2F80ED"/>
<circle cx="601" cy="567" r="6" fill="#2F80ED"/>
<circle cx="618" cy="567" r="6" fill="#2F80ED"/>
<circle cx="635" cy="567" r="6" fill="#2F80ED"/>
<circle cx="652" cy="567" r="6" fill="#2F80ED"/>
<circle cx="669" cy="567" r="6" fill="#2F80ED"/>
<circle cx="686" cy="567" r="6" fill="#2F80ED"/>
<circle cx="703" cy="567" r="6" fill="#2F80ED"/>
<circle cx="720" cy="567" r="6" fill="#2F80ED"/>
<circle cx="295" cy="584" r="6" fill="#2F80ED"/>
<circle cx="312" cy="584" r="6" fill="#2F80ED"/>
<circle cx="329" cy="584" r="6" fill="#2F80ED"/>
<circle cx="346" cy="584" r="6" fill="#2F80ED"/>
<circle cx="363" cy="584" r="6" fill="#2F80ED"/>
<circle cx="380" cy="584" r="6" fill="#2F80ED"/>
<circle cx="397" cy="584" r="6" fill="#2F80ED"/>
<circle cx="414" cy="584" r="6" fill="#2F80ED"/>
<circle cx="431" cy="584" r="6" fill="#2F80ED"/>
<circle cx="448" cy="584" r="6" fill="#2F80ED"/>
<circle cx="465" cy="584" r="6" fill="#2F80ED"/>
<circle cx="482" cy="584" r="6" fill="#2F80ED"/>
<circle cx="499" cy="584" r="6" fill="#2F80ED"/>
<circle cx="516" cy="584" r="6" fill="#2F80ED"/>
<circle cx="533" cy="584" r="6" fill="#2F80ED"/>
<circle cx="550" cy="584" r="6" fill="#2F80ED"/>
<circle cx="567" cy="584" r="6" fill="#2F80ED"/>
<circle cx="584" cy="584" r="6" fill="#2F80ED"/>
<circle cx="601" cy="584" r="6" fill="#2F80ED"/>
<circle cx="618" cy="584" r="6" fill="#2F80ED"/>
<circle cx="635" cy="584" r="6" fill="#2F80ED"/>
<circle cx="652" cy="584" r="6" fill="#2F80ED"/>
<circle cx="669" cy="584" r="6" fill="#2F80ED"/>
<circle cx="686" cy="584" r="6" fill="#2F80ED"/>
<circle cx="703" cy="584" r="6" fill="#2F80ED"/>
<circle cx="720" cy="584" r="6" fill="#2F80ED"/>
<circle cx="295" cy="601" r="6" fill="#2F80ED"/>
<circle cx="312" cy="601" r="6" fill="#2F80ED"/>
<circle cx="329" cy="601" r="6" fill="#2F80ED"/>
<circle cx="346" cy="601" r="6" fill="#2F80ED"/>
<circle cx="363" cy="601" r="6" fill="#2F80ED"/>
<circle cx="380" cy="601" r="6" fill="#2F80ED"/>
<circle cx="397" cy="601" r="6" fill="#2F80ED"/>
<circle cx="414" cy="601" r="6" fill="#2F80ED"/>
<circle cx="431" cy="601" r="6" fill="#2F80ED"/>
<circle cx="448" cy="601" r="6" fill="#2F80ED"/>
<circle cx="465" cy="601" r="6" fill="#2F80ED"/>
<circle cx="482" cy="601" r="6" fill="#2F80ED"/>
<circle cx="499" cy="601" r="6" fill="#2F80ED"/>
<circle cx="516" cy="601" r="6" fill="#2F80ED"/>
<circle cx="533" cy="601" r="6" fill="#2F80ED"/>
<circle cx="550" cy="601" r="6" fill="#2F80ED"/>
<circle cx="567" cy="601" r="6" fill="#2F80ED"/>
<circle cx="584" cy="601" r="6" fill="#2F80ED"/>
<circle cx="601" cy="601" r="6" fill="#2F80ED"/>
<circle cx="618" cy="601" r="6" fill="#2F80ED"/>
<circle cx="635" cy="601" r="6" fill="#2F80ED"/>
<circle cx="652" cy="601" r="6" fill="#2F80ED"/>
<circle cx="669" cy="601" r="6" fill="#2F80ED"/>
<circle cx="686" cy="601" r="6" fill="#2F80ED"/>
<circle cx="703" cy="601" r="6" fill="#2F80ED"/>
<circle cx="720" cy="601" r="6" fill="#2F80ED"/>
<circle cx="295" cy="618" r="6" fill="#2F80ED"/>
<circle cx="312" cy="618" r="6" fill="#2F80ED"/>
<circle cx="329" cy="618" r="6" fill="#2F80ED"/>
<circle cx="346" cy="618" r="6" fill="#2F80ED"/>
<circle cx="363" cy="618" r="6" fill="#2F80ED"/>
<circle cx="380" cy="618" r="6" fill="#2F80ED"/>
<circle cx="397" cy="618" r="6" fill="#2F80ED"/>
<circle cx="414" cy="618" r="6" fill="#2F80ED"/>
<circle cx="431" cy="618" r="6" fill="#2F80ED"/>
<circle cx="448" cy="618" r="6" fill="#2F80ED"/>
<circle cx="465" cy="618" r="6" fill="#2F80ED"/>
<circle cx="482" cy="618" r="6" fill="#2F80ED"/>
<circle cx="499" cy="618" r="6" fill="#2F80ED"/>
<circle cx="516" cy="618" r="6" fill="#2F80ED"/>
<circle cx="533" cy="618" r="6" fill="#2F80ED"/>
<circle cx="550" cy="618" r="6" fill="#2F80ED"/>
<circle cx="567" cy="618" r="6" fill="#2F80ED"/>
<circle cx="584" cy="618" r="6" fill="#2F80ED"/>
<circle cx="601" cy="618" r="6" fill="#2F80ED"/>
<circle cx="618" cy="618" r="6" fill="#2F80ED"/>
<circle cx="635" cy="618" r="6" fill="#2F80ED"/>
<circle cx="652" cy="618" r="6" fill="#2F80ED"/>
<circle cx="669" cy="618" r="6" fill="#2F80ED"/>
<circle cx="686" cy="618" r="6" fill="#2F80ED"/>
<circle cx="703" cy="618" r="6" fill="#2F80ED"/>
<circle cx="720" cy="618" r="6" fill="#2F80ED"/>
<circle cx="295" cy="635" r="6" fill="#2F80ED"/>
<circle cx="312" cy="635" r="6" fill="#2F80ED"/>
<circle cx="329" cy="635" r="6" fill="#2F80ED"/>
<circle cx="346" cy="635" r="6" fill="#2F80ED"/>
<circle cx="363" cy="635" r="6" fill="#2F80ED"/>
<circle cx="380" cy="635" r="6" fill="#2F80ED"/>
<circle cx="397" cy="635" r="6" fill="#2F80ED"/>
<circle cx="414" cy="635" r="6" fill="#2F80ED"/>
<circle cx="431" cy="635" r="6" fill="#2F80ED"/>
<circle cx="448" cy="635" r="6" fill="#2F80ED"/>
<circle cx="465" cy="635" r="6" fill="#2F80ED"/>
<circle cx="482" cy="635" r="6" fill="#2F80ED"/>
<circle cx="499" cy="635" r="6" fill="#2F80ED"/>
<circle cx="516" cy="635" r="6" fill="#2F80ED"/>
<circle cx="533" cy="635" r="6" fill="#2F80ED"/>
<circle cx="550" cy="635" r="6" fill="#2F80ED"/>
<circle cx="567" cy="635" r="6" fill="#2F80ED"/>
<circle cx="584" cy="635" r="6" fill="#2F80ED"/>
<circle cx="601" cy="635" r="6" fill="#2F80ED"/>
<circle cx="618" cy="635" r="6" fill="#2F80ED"/>
<circle cx="635" cy="635" r="6" fill="#2F80ED"/>
<circle cx="652" cy="635" r="6" fill="#2F80ED"/>
<circle cx="669" cy="635" r="6" fill="#2F80ED"/>
<circle cx="686" cy="635" r="6" fill="#2F80ED"/>
<circle cx="703" cy="635" r="6" fill="#2F80ED"/>
<circle cx="720" cy="635" r="6" fill="#2F80ED"/>
<circle cx="295" cy="652" r="6" fill="#2F80ED"/>
<circle cx="312" cy="652" r="6" fill="#2F80ED"/>
<circle cx="329" cy="652" r="6" fill="#2F80ED"/>
<circle cx="346" cy="652" r="6" fill="#2F80ED"/>
<circle cx="363" cy="652" r="6" fill="#2F80ED"/>
<circle cx="380" cy="652" r="6" fill="#2F80ED"/>
<circle cx="397" cy="652" r="6" fill="#2F80ED"/>
<circle cx="414" cy="652" r="6" fill="#2F80ED"/>
<circle cx="431" cy="652" r="6" fill="#2F80ED"/>
<circle cx="448" cy="652" r="6" fill="#2F80ED"/>
<circle cx="465" cy="652" r="6" fill="#2F80ED"/>
<circle cx="482" cy="652" r="6" fill="#2F80ED"/>
<circle cx="499" cy="652" r="6" fill="#2F80ED"/>
<circle cx="516" cy="652" r="6" fill="#2F80ED"/>
<circle cx="533" cy="652" r="6" fill="#2F80ED"/>
<circle cx="550" cy="652" r="6" fill="#2F80ED"/>
<circle cx="567" cy="652" r="6" fill="#2F80ED"/>
<circle cx="584" cy="652" r="6" fill="#2F80ED"/>
<circle cx="601" cy="652" r="6" fill="#2F80ED"/>
<circle cx="618" cy="652" r="6" fill="#2F80ED"/>
<circle cx="635" cy="652" r="6" fill="#2F80ED"/>
<circle cx="652" cy="652" r="6" fill="#2F80ED"/>
<circle cx="669" cy="652" r="6" fill="#2F80ED"/>
<circle cx="686" cy="652" r="6" fill="#2F80ED"/>
<circle cx="703" cy="652" r="6" fill="#2F80ED"/>
<circle cx="720" cy="652" r="6" fill="#2F80ED"/>
<circle cx="295" cy="669" r="6" fill="#2F80ED"/>
<circle cx="312" cy="669" r="6" fill="#2F80ED"/>
<circle cx="329" cy="669" r="6" fill="#2F80ED"/>
<circle cx="346" cy="669" r="6" fill="#2F80ED"/>
<circle cx="363" cy="669" r="6" fill="#2F80ED"/>
<circle cx="380" cy="669" r="6" fill="#2F80ED"/>
<circle cx="397" cy="669" r="6" fill="#2F80ED"/>
<circle cx="414" cy="669" r="6" fill="#2F80ED"/>
<circle cx="431" cy="669" r="6" fill="#2F80ED"/>
<circle cx="448" cy="669" r="6" fill="#2F80ED"/>
<circle cx="465" cy="669" r="6" fill="#2F80ED"/>
<circle cx="482" cy="669" r="6" fill="#2F80ED"/>
<circle cx="499" cy="669" r="6" fill="#2F80ED"/>
<circle cx="516" cy="669" r="6" fill="#2F80ED"/>
<circle cx="533" cy="669" r="6" fill="#2F80ED"/>
<circle cx="550" cy="669" r="6" fill="#2F80ED"/>
<circle cx="567" cy="669" r="6" fill="#2F80ED"/>
<circle cx="584" cy="669" r="6" fill="#2F80ED"/>
<circle cx="601" cy="669" r="6" fill="#2F80ED"/>
<circle cx="618" cy="669" r="6" fill="#2F80ED"/>
<circle cx="635" cy="669" r="6" fill="#2F80ED"/>
<circle cx="652" cy="669" r="6" fill="#2F80ED"/>
<circle cx="669" cy="669" r="6" fill="#2F80ED"/>
<circle cx="686" cy="669" r="6" fill="#2F80ED"/>
<circle cx="703" cy="669" r="6" fill="#2F80ED"/>
<circle cx="720" cy="669" r="6" fill="#2F80ED"/>
<circle cx="295" cy="686" r="6" fill="#2F80ED"/>
<circle cx="312" cy="686" r="6" fill="#2F80ED"/>
<circle cx="329" cy="686" r="6" fill="#2F80ED"/>
<circle cx="346" cy="686" r="6" fill="#2F80ED"/>
<circle cx="363" cy="686" r="6" fill="#2F80ED"/>
<circle cx="380" cy="686" r="6" fill="#2F80ED"/>
<circle cx="397" cy="686" r="6" fill="#2F80ED"/>
<circle cx="414" cy="686" r="6" fill="#2F80ED"/>
<circle cx="431" cy="686" r="6" fill="#2F80ED"/>
<circle cx="448" cy="686" r="6" fill="#2F80ED"/>
<circle cx="465" cy="686" r="6" fill="#2F80ED"/>
<circle cx="482" cy="686" r="6" fill="#2F80ED"/>
<circle cx="499" cy="686" r="6" fill="#2F80ED"/>
<circle cx="516" cy="686" r="6" fill="#2F80ED"/>
<circle cx="533" cy="686" r="6" fill="#2F80ED"/>
<circle cx="550" cy="686" r="6" fill="#2F80ED"/>
<circle cx="567" cy="686" r="6" fill="#2F80ED"/>
<circle cx="584" cy="686" r="6" fill="#2F80ED"/>
<circle cx="601" cy="686" r="6" fill="#2F80ED"/>
<circle cx="618" cy="686" r="6" fill="#2F80ED"/>
<circle cx="635" cy="686" r="6" fill="#2F80ED"/>
<circle cx="652" cy="686" r="6" fill="#2F80ED"/>
<circle cx="669" cy="686" r="6" fill="#2F80ED"/>
<circle cx="686" cy="686" r="6" fill="#2F80ED"/>
<circle cx="703" cy="686" r="6" fill="#2F80ED"/>
<circle cx="720" cy="686" r="6" fill="#2F80ED"/>
<circle cx="295" cy="703" r="6" fill="#2F80ED"/>
<circle cx="312" cy="703" r="6" fill="#2F80ED"/>
<circle cx="329" cy="703" r="6" fill="#2F80ED"/>
<circle cx="346" cy="703" r="6" fill="#2F80ED"/>
<circle cx="363" cy="703" r="6" fill="#2F80ED"/>
<circle cx="380" cy="703" r="6" fill="#2F80ED"/>
<circle cx="397" cy="703" r="6" fill="#2F80ED"/>
<circle cx="414" cy="703" r="6" fill="#2F80ED"/>
<circle cx="431" cy="703" r="6" fill="#2F80ED"/>
<circle cx="448" cy="703" r="6" fill="#2F80ED"/>
<circle cx="465" cy="703" r="6" fill="#2F80ED"/>
<circle cx="482" cy="703" r="6" fill="#2F80ED"/>
<circle cx="499" cy="703" r="6" fill="#2F80ED"/>
<circle cx="516" cy="703" r="6" fill="#2F80ED"/>
<circle cx="533" cy="703" r="6" fill="#2F80ED"/>
<circle cx="550" cy="703" r="6" fill="#2F80ED"/>
<circle cx="567" cy="703" r="6" fill="#2F80ED"/>
<circle cx="584" cy="703" r="6" fill="#2F80ED"/>
<circle cx="601" cy="703" r="6" fill="#2F80ED"/>
<circle cx="618" cy="703" r="6" fill="#2F80ED"/>
<circle cx="635" cy="703" r="6" fill="#2F80ED"/>
<circle cx="652" cy="703" r="6" fill="#2F80ED"/>
<circle cx="669" cy="703" r="6" fill="#2F80ED"/>
<circle cx="686" cy="703" r="6" fill="#2F80ED"/>
<circle cx="703" cy="703" r="6" fill="#2F80ED"/>
<circle cx="720" cy="703" r="6" fill="#2F80ED"/>
<circle cx="295" cy="720" r="6" fill="#2F80ED"/>
<circle cx="312" cy="720" r="6" fill="#2F80ED"/>
<circle cx="329" cy="720" r="6" fill="#2F80ED"/>
<circle cx="346" cy="720" r="6" fill="#2F80ED"/>
<circle cx="363" cy="720" r="6" fill="#2F80ED"/>
<circle cx="380" cy="720" r="6" fill="#2F80ED"/>
<circle cx="397" cy="720" r="6" fill="#2F80ED"/>
<circle cx="414" cy="720" r="6" fill="#2F80ED"/>
<circle cx="431" cy="720" r="6" fill="#2F80ED"/>
<circle cx="448" cy="720" r="6" fill="#2F80ED"/>
<circle cx="465" cy="720" r="6" fill="#2F80ED"/>
<circle cx="482" cy="720" r="6" fill="#2F80ED"/>
<circle cx="499" cy="720" r="6" fill="#2F80ED"/>
<circle cx="516" cy="720" r="6" fill="#2F80ED"/>
<circle cx="533" cy="720" r="6" fill="#2F80ED"/>
<circle cx="550" cy="720" r="6" fill="#2F80ED"/>
<circle cx="567" cy="720" r="6" fill="#2F80ED"/>
<circle cx="584" cy="720" r="6" fill="#2F80ED"/>
<circle cx="601" cy="720" r="6" fill="#2F80ED"/>
<circle cx="618" cy="720" r="6" fill="#2F80ED"/>
<circle cx="635" cy="720" r="6" fill="#2F80ED"/>
<circle cx="652" cy="720" r="6" fill="#2F80ED"/>
<circle cx="669" cy="720" r="6" fill="#2F80ED"/>
<circle cx="686" cy="720" r="6" fill="#2F80ED"/>
<circle cx="703" cy="720" r="6" fill="#2F80ED"/>
<circle cx="720" cy="720" r="6" fill="#2F80ED"/>
<circle cx="295" cy="737" r="6" fill="#2F80ED"/>
<circle cx="312" cy="737" r="6" fill="#2F80ED"/>
<circle cx="329" cy="737" r="6" fill="#2F80ED"/>
<circle cx="346" cy="737" r="6" fill="#2F80ED"/>
<circle cx="363" cy="737" r="6" fill="#2F80ED"/>
<circle cx="380" cy="737" r="6" fill="#2F80ED"/>
<circle cx="397" cy="737" r="6" fill="#2F80ED"/>
<circle cx="414" cy="737" r="6" fill="#2F80ED"/>
<circle cx="431" cy="737" r="6" fill="#2F80ED"/>
<circle cx="448" cy="737" r="6" fill="#2F80ED"/>
<circle cx="465" cy="737" r="6" fill="#2F80ED"/>
<circle cx="482" cy="737" r="6" fill="#2F80ED"/>
<circle cx="499" cy="737" r="6" fill="#2F80ED"/>
<circle cx="516" cy="737" r="6" fill="#2F80ED"/>
<circle cx="533" cy="737" r="6" fill="#2F80ED"/>
<circle cx="550" cy="737" r="6" fill="#2F80ED"/>
<circle cx="567" cy="737" r="6" fill="#2F80ED"/>
<circle cx="584" cy="737" r="6" fill="#2F80ED"/>
<circle cx="601" cy="737" r="6" fill="#2F80ED"/>
<circle cx="618" cy="737" r="6" fill="#2F80ED"/>
<circle cx="635" cy="737" r="6" fill="#2F80ED"/>
<circle cx="652" cy="737" r="6" fill="#2F80ED"/>
<circle cx="669" cy="737" r="6" fill="#2F80ED"/>
<circle cx="686" cy="737" r="6" fill="#2F80ED"/>
<circle cx="703" cy="737" r="6" fill="#2F80ED"/>
<circle cx="720" cy="737" r="6" fill="#2F80ED"/>
<circle cx="295" cy="754" r="6" fill="#2F80ED"/>
<circle cx="312" cy="754" r="6" fill="#2F80ED"/>
<circle cx="329" cy="754" r="6" fill="#2F80ED"/>
<circle cx="346" cy="754" r="6" fill="#2F80ED"/>
<circle cx="363" cy="754" r="6" fill="#2F80ED"/>
<circle cx="380" cy="754" r="6" fill="#2F80ED"/>
<circle cx="397" cy="754" r="6" fill="#2F80ED"/>
<circle cx="414" cy="754" r="6" fill="#2F80ED"/>
<circle cx="431" cy="754" r="6" fill="#2F80ED"/>
<circle cx="448" cy="754" r="6" fill="#2F80ED"/>
<circle cx="465" cy="754" r="6" fill="#2F80ED"/>
<circle cx="482" cy="754" r="6" fill="#2F80ED"/>
<circle cx="499" cy="754" r="6" fill="#2F80ED"/>
<circle cx="516" cy="754" r="6" fill="#2F80ED"/>
<circle cx="533" cy="754" r="6" fill="#2F80ED"/>
<circle cx="550" cy="754" r="6" fill="#2F80ED"/>
<circle cx="567" cy="754" r="6" fill="#2F80ED"/>
<circle cx="584" cy="754" r="6" fill="#2F80ED"/>
<circle cx="601" cy="754" r="6" fill="#2F80ED"/>
<circle cx="618" cy="754" r="6" fill="#2F80ED"/>
<circle cx="635" cy="754" r="6" fill="#2F80ED"/>
<circle cx="652" cy="754" r="6" fill="#2F80ED"/>
<circle cx="669" cy="754" r="6" fill="#2F80ED"/>
<circle cx="686" cy="754" r="6" fill="#2F80ED"/>
<circle cx="703" cy="754" r="6" fill="#2F80ED"/>
<circle cx="720" cy="754" r="6" fill="#2F80ED"/>
</g>
<defs>
<linearGradient id="paint0_linear" x1="500" y1="0" x2="500" y2="1000" gradientUnits="userSpaceOnUse">
<stop stop-color="#BB6BD9"/>
<stop offset="1" stop-color="#9B51E0"/>
</linearGradient>
</defs>
</svg>
